<svg xmlns="http://www.w3.org/2000/svg" width="850" height="280" viewBox="0 0 850 280" role="img" aria-label="Harsh Choudhary — Founding AI Engineer">
  
  <defs>
    <radialGradient id="halo1" cx="20%" cy="40%" r="60%">
      <stop offset="0%" stop-color="#9a8cff" stop-opacity="0.32"></stop>
      <stop offset="60%" stop-color="#9a8cff" stop-opacity="0"></stop>
    </radialGradient>
    <radialGradient id="halo2" cx="90%" cy="70%" r="50%">
      <stop offset="0%" stop-color="#ff7ab6" stop-opacity="0.22"></stop>
      <stop offset="60%" stop-color="#ff7ab6" stop-opacity="0"></stop>
    </radialGradient>
    <linearGradient id="brandGrad" x1="0" y1="0" x2="1" y2="1">
      <stop offset="0%" stop-color="#9a8cff"></stop>
      <stop offset="55%" stop-color="#ff7ab6"></stop>
      <stop offset="100%" stop-color="#ffb455"></stop>
    </linearGradient>
  </defs>
  <rect width="850" height="280" fill="#08080c" rx="18"></rect>
  <rect width="850" height="280" fill="url(#halo1)" rx="18"></rect>
  <rect width="850" height="280" fill="url(#halo2)" rx="18"></rect>
  <g opacity="0.55"><circle cx="93.0%" cy="51.0%" r="1.2" fill="#fff" opacity="0.27"></circle><circle cx="30.5%" cy="24.3%" r="0.6" fill="#fff" opacity="0.38"></circle><circle cx="68.0%" cy="97.6%" r="0.6" fill="#fff" opacity="0.49"></circle><circle cx="5.5%" cy="70.9%" r="1.2" fill="#fff" opacity="0.61"></circle><circle cx="43.0%" cy="44.2%" r="0.6" fill="#fff" opacity="0.72"></circle><circle cx="80.5%" cy="17.6%" r="0.6" fill="#fff" opacity="0.34"></circle><circle cx="18.0%" cy="90.9%" r="1.2" fill="#fff" opacity="0.45"></circle><circle cx="55.5%" cy="64.2%" r="0.6" fill="#fff" opacity="0.57"></circle><circle cx="93.0%" cy="37.5%" r="0.6" fill="#fff" opacity="0.69"></circle><circle cx="30.5%" cy="10.8%" r="1.2" fill="#fff" opacity="0.30"></circle><circle cx="68.0%" cy="84.1%" r="0.6" fill="#fff" opacity="0.42"></circle><circle cx="5.5%" cy="57.4%" r="0.6" fill="#fff" opacity="0.53"></circle><circle cx="43.0%" cy="30.7%" r="1.2" fill="#fff" opacity="0.65"></circle><circle cx="80.5%" cy="4.0%" r="0.6" fill="#fff" opacity="0.26"></circle><circle cx="18.0%" cy="77.3%" r="0.6" fill="#fff" opacity="0.38"></circle><circle cx="55.5%" cy="50.7%" r="1.2" fill="#fff" opacity="0.49"></circle><circle cx="93.0%" cy="24.0%" r="0.6" fill="#fff" opacity="0.60"></circle><circle cx="30.5%" cy="97.3%" r="0.6" fill="#fff" opacity="0.72"></circle><circle cx="68.0%" cy="70.6%" r="1.2" fill="#fff" opacity="0.34"></circle><circle cx="5.5%" cy="43.9%" r="0.6" fill="#fff" opacity="0.45"></circle><circle cx="43.0%" cy="17.2%" r="0.6" fill="#fff" opacity="0.56"></circle><circle cx="80.5%" cy="90.5%" r="1.2" fill="#fff" opacity="0.68"></circle><circle cx="18.0%" cy="63.8%" r="0.6" fill="#fff" opacity="0.29"></circle><circle cx="55.5%" cy="37.1%" r="0.6" fill="#fff" opacity="0.41"></circle><circle cx="93.0%" cy="10.4%" r="1.2" fill="#fff" opacity="0.53"></circle><circle cx="30.5%" cy="83.8%" r="0.6" fill="#fff" opacity="0.64"></circle><circle cx="68.0%" cy="57.1%" r="0.6" fill="#fff" opacity="0.26"></circle><circle cx="5.5%" cy="30.4%" r="1.2" fill="#fff" opacity="0.37"></circle><circle cx="43.0%" cy="3.7%" r="0.6" fill="#fff" opacity="0.48"></circle><circle cx="80.5%" cy="77.0%" r="0.6" fill="#fff" opacity="0.60"></circle><circle cx="18.0%" cy="50.3%" r="1.2" fill="#fff" opacity="0.72"></circle><circle cx="55.5%" cy="23.6%" r="0.6" fill="#fff" opacity="0.33"></circle><circle cx="93.0%" cy="96.9%" r="0.6" fill="#fff" opacity="0.45"></circle><circle cx="30.5%" cy="70.2%" r="1.2" fill="#fff" opacity="0.56"></circle><circle cx="68.0%" cy="43.5%" r="0.6" fill="#fff" opacity="0.68"></circle><circle cx="5.5%" cy="16.8%" r="0.6" fill="#fff" opacity="0.29"></circle><circle cx="43.0%" cy="90.2%" r="1.2" fill="#fff" opacity="0.41"></circle><circle cx="80.5%" cy="63.5%" r="0.6" fill="#fff" opacity="0.52"></circle><circle cx="18.0%" cy="36.8%" r="0.6" fill="#fff" opacity="0.64"></circle><circle cx="55.5%" cy="10.1%" r="1.2" fill="#fff" opacity="0.25"></circle><circle cx="93.0%" cy="83.4%" r="0.6" fill="#fff" opacity="0.36"></circle><circle cx="30.5%" cy="56.7%" r="0.6" fill="#fff" opacity="0.48"></circle><circle cx="68.0%" cy="30.0%" r="1.2" fill="#fff" opacity="0.59"></circle><circle cx="5.5%" cy="3.3%" r="0.6" fill="#fff" opacity="0.71"></circle><circle cx="43.0%" cy="76.6%" r="0.6" fill="#fff" opacity="0.33"></circle><circle cx="80.5%" cy="50.0%" r="1.2" fill="#fff" opacity="0.44"></circle><circle cx="18.0%" cy="23.3%" r="0.6" fill="#fff" opacity="0.55"></circle><circle cx="55.5%" cy="96.6%" r="0.6" fill="#fff" opacity="0.67"></circle><circle cx="93.0%" cy="69.9%" r="1.2" fill="#fff" opacity="0.29"></circle><circle cx="30.5%" cy="43.2%" r="0.6" fill="#fff" opacity="0.40"></circle></g>

  
  <g transform="translate(48, 50)">
    <circle cx="6" cy="0" r="5" fill="#34d399">
      
    </circle>
    <text x="22" y="4" font-family="&#39;JetBrains Mono&#39;, ui-monospace, &#39;SF Mono&#39;, Consolas, monospace" fill="#a8a8b8" font-size="11" letter-spacing="2.5">BUILDING · OPEN TO COLLAB · 2026</text>
  </g>

  
  <text x="48" y="135" font-family="&#39;Instrument Serif&#39;, &#39;Source Serif 4&#39;, Georgia, serif" fill="#f4f4f8" font-size="76">Harsh</text>
  <text x="48" y="210" font-family="&#39;Instrument Serif&#39;, &#39;Source Serif 4&#39;, Georgia, serif" font-style="italic" fill="url(#brandGrad)" font-size="76">Choudhary.</text>

  
  <text x="48" y="252" font-family="&#39;Inter&#39;, -apple-system, BlinkMacSystemFont, &#39;Segoe UI&#39;, sans-serif" fill="#a8a8b8" font-size="14">Founding AI Engineer · Production agentic systems from 0 → 1</text>

  
  <text x="740" y="40" font-family="&#39;JetBrains Mono&#39;, ui-monospace, &#39;SF Mono&#39;, Consolas, monospace" fill="#9a8cff" font-size="11" letter-spacing="2" opacity="0.7">v2026.05</text>
</svg>